Coordinates
version=1
nRows=26
nColumns=24
inDegrees=yes

Units are S.I. units (second, meters, Newtons, ...)
Angles are in degrees.

endheader
time	pelvis_tilt	pelvis_list	pelvis_rotation	pelvis_tx	pelvis_ty	pelvis_tz	hip_flexion_r	hip_adduction_r	hip_rotation_r	knee_angle_r	ankle_angle_r	subtalar_angle_r	mtp_angle_r	hip_flexion_l	hip_adduction_l	hip_rotation_l	knee_angle_l	ankle_angle_l	subtalar_angle_l	mtp_angle_l	lumbar_extension	lumbar_bending	lumbar_rotation
      7.24000000	      3.56368735	      4.60464760	     -4.86321719	      2.19065868	      1.06523532	     -0.11956439	      9.26376615	     -6.75524310	     -3.86274486	    -59.83135787	    -26.77538213	    -44.67744897	      0.00000000	     -3.48498351	     11.39794380	      7.65903575	     -5.51423223	      4.75902117	    -23.31542327	      0.00000000	    -13.59950464	     -6.10337710	     -7.57361915
      7.25000000	      3.37763434	      4.35939306	     -4.58210847	      2.20112679	      1.06640714	     -0.11954300	     10.56443715	     -6.24509374	     -3.47108954	    -59.69462279	    -24.55126188	    -44.30210885	      0.00000000	     -4.35229521	     11.09909299	      8.07314298	     -4.76083177	      4.31626401	    -23.55440090	      0.00000000	    -13.64952739	     -5.76285206	     -7.91110223
      7.26000000	      3.17878759	      4.15708034	     -4.26206627	      2.21156253	      1.06751470	     -0.11946208	     11.81785104	     -5.76580480	     -3.09356455	    -59.32530816	    -22.18597683	    -43.48033955	      0.00000000	     -5.20686625	     10.82414982	      8.43452527	     -3.99270937	      3.85623787	    -23.68533887	      0.00000000	    -13.67739325	     -5.48454211	     -8.22486460
      7.27000000	      2.99047920	      4.00225218	     -3.88529312	      2.22193577	      1.06856107	     -0.11936078	     12.99344680	     -5.33772530	     -2.75128299	    -58.72188531	    -19.65906150	    -42.29257311	      0.00000000	     -6.04666473	     10.58244488	      8.72211134	     -3.25872996	      3.35858936	    -23.76405305	      0.00000000	    -13.72819322	     -5.26716385	     -8.60316840
      7.28000000	      2.80814255	      3.87529851	     -3.46231019	      2.23228520	      1.06953219	     -0.11925781	     14.08735494	     -4.95103097	     -2.44765968	    -57.87704018	    -17.06879406	    -40.81987956	      0.00000000	     -6.87760535	     10.35556646	      8.99743309	     -2.54890595	      2.88238185	    -23.74865369	      0.00000000	    -13.78558852	     -5.08156575	     -8.98705714
      7.29000000	      2.63685938	      3.76425943	     -2.98998724	      2.24261583	      1.07041970	     -0.11916249	     15.08325401	     -4.59962602	     -2.18882099	    -56.78381558	    -14.49527642	    -39.17681345	      0.00000000	     -7.68849653	     10.13246285	      9.25885819	     -1.89536296	      2.42796232	    -23.67308371	      0.00000000	    -13.85859979	     -4.91411584	     -9.40206493
      7.30000000	      2.47144739	      3.66342752	     -2.47767438	      2.25294190	      1.07119856	     -0.11908463	     15.98018487	     -4.28403126	     -1.97505844	    -55.43881456	    -12.01898944	    -37.47014946	      0.00000000	     -8.46405019	      9.91094456	      9.51546865	     -1.31687525	      2.01724118	    -23.56146738	      0.00000000	    -13.93961794	     -4.75380252	     -9.84376674
      7.31000000	      2.31302503	      3.56862638	     -1.93251760	      2.26326654	      1.07185495	     -0.11901985	     16.77023001	     -4.00076362	     -1.80107175	    -53.83753226	     -9.73267107	    -35.81029984	      0.00000000	     -9.19369668	      9.68953887	      9.76832182	     -0.83393820	      1.66390264	    -23.42779059	      0.00000000	    -14.03159997	     -4.59918911	    -10.30924832
      7.32000000	      2.12188720	      3.48644794	     -1.37202238	      2.27363155	      1.07231829	     -0.11896425	     17.49382506	     -3.75627535	     -1.65227731	    -51.98579916	     -7.69672040	    -34.24399628	      0.00000000	     -9.83654160	      9.47899119	     10.02878797	     -0.44678320	      1.35114261	    -23.31103866	      0.00000000	    -14.07454267	     -4.45451304	    -10.76895380
      7.33000000	      1.96714360	      3.42387077	     -0.79276019	      2.28403737	      1.07266371	     -0.11891370	     18.06556083	     -3.56352736	     -1.53723913	    -49.87401737	     -5.94195018	    -32.85523217	      0.00000000	    -10.46078572	      9.28898887	     10.26244214	     -0.16529790	      1.10859485	    -23.17454987	      0.00000000	    -14.16248061	     -4.33225471	    -11.25974642
      7.34000000	      1.77503851	      3.39090107	     -0.21178573	      2.29450785	      1.07278671	     -0.11885664	     18.56782842	     -3.42661347	     -1.43112102	    -47.51698953	     -4.44876490	    -31.59496942	      0.00000000	    -10.99372801	      9.13212966	     10.49760104	      0.01562673	      0.90931918	    -23.05702739	      0.00000000	    -14.19743473	     -4.24752466	    -11.73259126
      7.35000000	      1.56497277	      3.39575128	      0.36193899	      2.30507757	      1.07270422	     -0.11878798	     18.97538049	     -3.35961752	     -1.34197671	    -44.91823850	     -3.19015846	    -30.42600617	      0.00000000	    -11.47424929	      9.01759302	     10.70615558	      0.12911596	      0.72242571	    -22.96132106	      0.00000000	    -14.19689783	     -4.20737527	    -12.19178257
      7.36000000	      1.36116928	      3.44309399	      0.93241153	      2.31573865	      1.07245368	     -0.11869817	     19.25568776	     -3.36454244	     -1.26861733	    -42.07840375	     -2.11271464	    -29.30645251	      0.00000000	    -11.93221839	      8.94700803	     10.90607823	      0.17609941	      0.56251127	    -22.86649196	      0.00000000	    -14.20184195	     -4.22302399	    -12.63872474
      7.37000000	      1.16687931	      3.53714738	      1.48948026	      2.32652299	      1.07203872	     -0.11859404	     19.40464936	     -3.44759210	     -1.22140647	    -39.00855158	     -1.15796654	    -28.14868889	      0.00000000	    -12.38948925	      8.92337606	     11.09322691	      0.18712600	      0.41451112	    -22.76433025	      0.00000000	    -14.20858456	     -4.29263433	    -13.07481110
      7.38000000	      0.97791143	      3.67960565	      2.03136880	      2.33744805	      1.07145826	     -0.11846490	     19.43151163	     -3.60945346	     -1.21745328	    -35.73186361	     -0.26654387	    -26.85000470	      0.00000000	    -12.85738876	      8.94350438	     11.26536883	      0.18813457	      0.26485024	    -22.65394742	      0.00000000	    -14.21211315	     -4.42286383	    -13.48719271
      7.39000000	      0.83093674	      3.86378434	      2.56029618	      2.34854131	      1.07076174	     -0.11832894	     19.29822913	     -3.83944647	     -1.28383089	    -32.26533088	      0.60474590	    -25.38163416	      0.00000000	    -13.39268878	      8.99315143	     11.46819793	      0.20482612	      0.12852404	    -22.49591733	      0.00000000	    -14.25246605	     -4.59642141	    -13.87251730
      7.40000000	      0.68543792	      4.09401470	      3.06134582	      2.35981353	      1.06989457	     -0.11817198	     19.07671459	     -4.14072336	     -1.45908121	    -28.67391908	      1.51523439	    -23.55745193	      0.00000000	    -13.94524882	      9.08268964	     11.59937546	      0.22961886	     -0.03791672	    -22.34616750	      0.00000000	    -14.27976127	     -4.82469694	    -14.25882761
      7.41000000	      0.58411382	      4.35094807	      3.54179625	      2.37129714	      1.06891103	     -0.11800162	     18.72962861	     -4.47726944	     -1.76128164	    -24.99496540	      2.45253992	    -21.45126470	      0.00000000	    -14.58037070	      9.17953338	     11.76432181	      0.28878029	     -0.18947709	    -22.14377258	      0.00000000	    -14.33906650	     -5.07841057	    -14.61423398
      7.42000000	      0.53115663	      4.62602761	      3.99161066	      2.38299696	      1.06781492	     -0.11780567	     18.27969296	     -4.82177068	     -2.18606384	    -21.29873714	      3.41613509	    -19.05048555	      0.00000000	    -15.29788287	      9.27532024	     11.92955553	      0.37911084	     -0.33910832	    -21.90453812	      0.00000000	    -14.43466618	     -5.34619571	    -14.93743116
      7.43000000	      0.52344411	      4.90083089	      4.40067167	      2.39492273	      1.06661071	     -0.11756034	     17.75441904	     -5.13660544	     -2.71300116	    -17.65185949	      4.34370731	    -16.44612899	      0.00000000	    -16.08389970	      9.35211383	     12.09600383	      0.48266093	     -0.47924542	    -21.63443613	      0.00000000	    -14.55589029	     -5.61433279	    -15.22820555
      7.44000000	      0.57579465	      5.16002818	      4.76516668	      2.40706071	      1.06533055	     -0.11724192	     17.14872958	     -5.38279741	     -3.23722523	    -14.10895503	      5.13683559	    -13.83306485	      0.00000000	    -16.94473919	      9.39245675	     12.26395001	      0.59063622	     -0.61166428	    -21.33605640	      0.00000000	    -14.72315044	     -5.86186076	    -15.47058137
      7.45000000	      0.69956089	      5.39447729	      5.07093632	      2.41939380	      1.06400495	     -0.11681410	     16.45689731	     -5.53612682	     -3.61101500	    -10.71912296	      5.68539335	    -11.48523631	      0.00000000	    -17.87650343	      9.39004960	     12.42625540	      0.68257718	     -0.74254737	    -21.01905740	      0.00000000	    -14.95114218	     -6.08332037	    -15.65381921
      7.46000000	      0.90380056	      5.60017757	      5.30369613	      2.43189817	      1.06266501	     -0.11625039	     15.67479541	     -5.59393920	     -3.68688707	     -7.53192399	      5.91144349	     -9.68077083	      0.00000000	    -18.87130363	      9.34723042	     12.57163133	      0.73509535	     -0.87827076	    -20.69322030	      0.00000000	    -15.25243977	     -6.27668712	    -15.76393707
      7.47000000	      1.19376688	      5.77028791	      5.44989902	      2.44455562	      1.06133435	     -0.11553457	     14.80647009	     -5.56425054	     -3.34998246	     -4.60283092	      5.77691010	     -8.67367100	      0.00000000	    -19.91755745	      9.26643569	     12.70270269	      0.72538447	     -1.04548945	    -20.41482092	      0.00000000	    -15.63400202	     -6.43682407	    -15.79229576
      7.48000000	      1.55617607	      5.90826528	      5.52283637	      2.45734433	      1.06006074	     -0.11471703	     13.94565131	     -5.49336671	     -3.05461811	     -2.11438710	      5.59131830	     -7.92605026	      0.00000000	    -20.98027846	      9.16073967	     12.79687691	      0.61691358	     -1.22733714	    -20.11656732	      0.00000000	    -16.08058799	     -6.56126450	    -15.75666922
      7.49000000	      2.00345171	      5.98238241	      5.51885775	      2.47026765	      1.05889672	     -0.11378121	     13.11139365	     -5.33616421	     -2.90422105	     -0.15759669	      5.34424670	     -7.46063594	      0.00000000	    -22.05227134	      9.00625808	     12.83300434	      0.38315111	     -1.39659523	    -19.77913595	      0.00000000	    -16.60278516	     -6.61639069	    -15.63546449
